<?xml version="1.0" encoding="utf-8"?>
<!-- Generator: Adobe Illustrator 25.2.3, SVG Export Plug-In . SVG Version: 6.00 Build 0)  -->
<svg version="1.1" id="Capa_1" xmlns="http://www.w3.org/2000/svg" xmlns:xlink="http://www.w3.org/1999/xlink" x="0px" y="0px"
	 viewBox="0 0 322.75 48.8" style="enable-background:new 0 0 322.75 48.8;" xml:space="preserve">
<style type="text/css">
	.st0{fill:#FFFFFF;}
</style>
<g>
	<polygon class="st0" points="0,0 8.04,0 17.32,32.3 17.32,0 24.47,0 24.47,48.11 16.77,48.11 7.15,17.32 7.15,48.11 0,48.11 	"/>
	<path class="st0" d="M46.8,37.46h-7.84l-1.58,10.65H30.1L38.07,0h9.76l7.97,48.11h-7.42L46.8,37.46z M45.84,30.45l-2.95-20.14
		l-2.95,20.14H45.84z"/>
	<polygon class="st0" points="56.22,0 79.45,0 79.45,6.87 71.48,6.87 71.48,48.11 64.19,48.11 64.19,6.87 56.22,6.87 	"/>
	<path class="st0" d="M101.44,48.11l-5.29-19.86h-3.78v19.86h-7.29V0H96.5c3.48,0,6.25,1.04,8.31,3.13
		c2.06,2.09,3.09,4.87,3.09,8.35v5.29c0,2.2-0.44,4.14-1.31,5.84c-0.87,1.7-2.11,3.03-3.71,3.98L109,48.11H101.44z M92.37,21.37
		h3.78c1.42,0,2.52-0.39,3.3-1.17c0.78-0.78,1.17-1.88,1.17-3.3v-5.57c0-1.42-0.39-2.52-1.17-3.3c-0.78-0.78-1.88-1.17-3.3-1.17
		h-3.78V21.37z"/>
	<path class="st0" d="M117.87,45.67c-2.11-2.08-3.16-4.8-3.16-8.14V10.31h7.29v27.22c0,1.38,0.38,2.45,1.14,3.23
		c0.76,0.78,1.73,1.17,2.92,1.17c1.19,0,2.17-0.39,2.92-1.17c0.76-0.78,1.13-1.85,1.13-3.23V10.31h7.15v27.22
		c0,3.35-1.03,6.06-3.09,8.14c-2.06,2.09-4.77,3.13-8.11,3.13C122.7,48.8,119.98,47.76,117.87,45.67"/>
	<path class="st0" d="M161.3,48.11l-5.29-19.86h-3.78v19.86h-7.29V0h11.41c3.48,0,6.25,1.04,8.31,3.13
		c2.06,2.09,3.09,4.87,3.09,8.35v5.29c0,2.2-0.44,4.14-1.31,5.84c-0.87,1.7-2.11,3.03-3.71,3.98l6.12,21.51H161.3z M152.23,21.37
		h3.78c1.42,0,2.52-0.39,3.3-1.17c0.78-0.78,1.17-1.88,1.17-3.3v-5.57c0-1.42-0.39-2.52-1.17-3.3c-0.78-0.78-1.88-1.17-3.3-1.17
		h-3.78V21.37z"/>
	<path class="st0" d="M189.21,37.46h-7.84l-1.58,10.65h-7.29L180.48,0h9.76l7.97,48.11h-7.42L189.21,37.46z M188.24,30.45
		l-2.95-20.14l-2.95,20.14H188.24z"/>
	<polygon class="st0" points="203.85,0 211.13,0 211.13,41.24 224.12,41.24 224.12,48.11 203.85,48.11 	"/>
	<rect x="114.71" class="st0" width="22.54" height="5.67"/>
	<g>
		<path class="st0" d="M250.9,0v40.55h12.23v6.76h-19.67V0H250.9z"/>
		<path class="st0" d="M273.82,0v47.31h-7.43V0H273.82z"/>
		<path class="st0" d="M296.25,21.02v6.76h-9.6v19.53h-7.43V0h19.67v6.76h-12.23v14.26H296.25z"/>
		<path class="st0" d="M320.11,19.94v6.76h-10.21v13.86h12.84v6.76h-20.28V0h20.28v6.76h-12.84v13.18H320.11z"/>
	</g>
</g>
</svg>
